<svg xmlns="http://www.w3.org/2000/svg" xmlns:xlink="http://www.w3.org/1999/xlink" version="1.1" x="0px" y="0px" viewBox="0 0 150 187.5" style="enable-background:new 0 0 150 150;" xml:space="preserve"><style type="text/css">
	.st0{fill:none;stroke:#000000;stroke-width:2;stroke-linecap:round;stroke-linejoin:round;stroke-miterlimit:10;}
	.st1{fill:none;}
	.st2{fill:none;stroke:#000000;stroke-width:2;stroke-linecap:round;stroke-linejoin:round;}
</style><g><g><path d="M123.3,31.4H104c-0.6,0-1-0.4-1-1V11c0-0.4,0.2-0.8,0.6-0.9c0.4-0.2,0.8-0.1,1.1,0.2L124,29.7c0.3,0.3,0.4,0.7,0.2,1.1    C124.1,31.1,123.7,31.4,123.3,31.4z M105,29.4h16l-16-16V29.4z"/></g><g><path d="M123.3,140H26.7c-0.6,0-1-0.4-1-1V11c0-0.6,0.4-1,1-1H104c0.3,0,0.5,0.1,0.7,0.3L124,29.7c0.2,0.2,0.3,0.4,0.3,0.7V139    C124.3,139.6,123.9,140,123.3,140z M27.7,138h94.7V30.8L103.5,12H27.7V138z"/></g><g><g><path d="M54.1,66.4h-7.3c-0.6,0-1-0.4-1-1V40.6c0-0.6,0.4-1,1-1h7.3c0.6,0,1,0.4,1,1v24.9C55.1,66,54.7,66.4,54.1,66.4z      M47.8,64.4h5.3V41.6h-5.3V64.4z"/></g><g><path d="M70.5,66.4h-7.3c-0.6,0-1-0.4-1-1V28.8c0-0.6,0.4-1,1-1h7.3c0.6,0,1,0.4,1,1v36.7C71.5,66,71,66.4,70.5,66.4z M64.2,64.4     h5.3V29.8h-5.3V64.4z"/></g><g><path d="M86.8,66.4h-7.3c-0.6,0-1-0.4-1-1V20.6c0-0.6,0.4-1,1-1h7.3c0.6,0,1,0.4,1,1v44.9C87.8,66,87.4,66.4,86.8,66.4z      M80.5,64.4h5.3V21.6h-5.3V64.4z"/></g><g><path d="M103.2,66.4h-7.3c-0.6,0-1-0.4-1-1V37c0-0.6,0.4-1,1-1h7.3c0.6,0,1,0.4,1,1v28.5C104.2,66,103.8,66.4,103.2,66.4z      M96.9,64.4h5.3V38h-5.3V64.4z"/></g><g><path d="M111,66.4H39c-0.6,0-1-0.4-1-1s0.4-1,1-1h72c0.6,0,1,0.4,1,1S111.6,66.4,111,66.4z"/></g><g><path d="M79.5,27.3c-0.3,0-0.6-0.2-0.8-0.5c-0.3-0.5-0.2-1.1,0.3-1.4l7.3-4.8c0.5-0.3,1.1-0.2,1.4,0.3c0.3,0.5,0.2,1.1-0.3,1.4     l-7.3,4.8C79.9,27.3,79.7,27.3,79.5,27.3z"/></g><g><path d="M79.5,35.1c-0.3,0-0.6-0.2-0.8-0.5c-0.3-0.5-0.2-1.1,0.3-1.4l7.3-4.8c0.5-0.3,1.1-0.2,1.4,0.3c0.3,0.5,0.2,1.1-0.3,1.4     l-7.3,4.8C79.9,35,79.7,35.1,79.5,35.1z"/></g><g><path d="M79.5,42.9c-0.3,0-0.6-0.2-0.8-0.5C78.4,42,78.5,41.3,79,41l7.3-4.8c0.5-0.3,1.1-0.2,1.4,0.3c0.3,0.5,0.2,1.1-0.3,1.4     l-7.3,4.8C79.9,42.8,79.7,42.9,79.5,42.9z"/></g><g><path d="M79.5,50.7c-0.3,0-0.6-0.2-0.8-0.5c-0.3-0.5-0.2-1.1,0.3-1.4l7.3-4.8c0.5-0.3,1.1-0.2,1.4,0.3c0.3,0.5,0.2,1.1-0.3,1.4     l-7.3,4.8C79.9,50.6,79.7,50.7,79.5,50.7z"/></g><g><path d="M79.5,58.4c-0.3,0-0.6-0.2-0.8-0.5c-0.3-0.5-0.2-1.1,0.3-1.4l7.3-4.8c0.5-0.3,1.1-0.2,1.4,0.3c0.3,0.5,0.2,1.1-0.3,1.4     l-7.3,4.8C79.9,58.4,79.7,58.4,79.5,58.4z"/></g><g><path d="M79.5,66.2c-0.3,0-0.6-0.2-0.8-0.5c-0.3-0.5-0.2-1.1,0.3-1.4l7.3-4.7c0.5-0.3,1.1-0.2,1.4,0.3c0.3,0.5,0.2,1.1-0.3,1.4     l-7.3,4.7C79.9,66.2,79.7,66.2,79.5,66.2z"/></g><g><path d="M46.8,48c-0.3,0-0.6-0.2-0.8-0.5c-0.3-0.5-0.2-1.1,0.3-1.4l7.3-4.8c0.5-0.3,1.1-0.2,1.4,0.3c0.3,0.5,0.2,1.1-0.3,1.4     l-7.3,4.8C47.2,47.9,47,48,46.8,48z"/></g><g><path d="M46.8,55.8c-0.3,0-0.6-0.2-0.8-0.5c-0.3-0.5-0.2-1.1,0.3-1.4l7.3-4.8c0.5-0.3,1.1-0.2,1.4,0.3c0.3,0.5,0.2,1.1-0.3,1.4     l-7.3,4.8C47.2,55.7,47,55.8,46.8,55.8z"/></g><g><path d="M46.8,63.5c-0.3,0-0.6-0.2-0.8-0.5c-0.3-0.5-0.2-1.1,0.3-1.4l7.3-4.8c0.5-0.3,1.1-0.2,1.4,0.3c0.3,0.5,0.2,1.1-0.3,1.4     l-7.3,4.8C47.2,63.5,47,63.5,46.8,63.5z"/></g><g><path d="M111,76H39c-0.6,0-1-0.4-1-1s0.4-1,1-1h72c0.6,0,1,0.4,1,1S111.6,76,111,76z"/></g><g><path d="M111,86.8H39c-0.6,0-1-0.4-1-1s0.4-1,1-1h72c0.6,0,1,0.4,1,1S111.6,86.8,111,86.8z"/></g><g><path d="M111,97.6H39c-0.6,0-1-0.4-1-1s0.4-1,1-1h72c0.6,0,1,0.4,1,1S111.6,97.6,111,97.6z"/></g><g><path d="M111,108.4H39c-0.6,0-1-0.4-1-1s0.4-1,1-1h72c0.6,0,1,0.4,1,1S111.6,108.4,111,108.4z"/></g><g><path d="M111,119.2H39c-0.6,0-1-0.4-1-1s0.4-1,1-1h72c0.6,0,1,0.4,1,1S111.6,119.2,111,119.2z"/></g><g><path d="M111,130H39c-0.6,0-1-0.4-1-1s0.4-1,1-1h72c0.6,0,1,0.4,1,1S111.6,130,111,130z"/></g></g></g><text x="0" y="165" fill="#000000" font-size="5px" font-weight="bold" font-family="'Helvetica Neue', Helvetica, Arial-Unicode, Arial, Sans-serif">Created by rivercon</text><text x="0" y="170" fill="#000000" font-size="5px" font-weight="bold" font-family="'Helvetica Neue', Helvetica, Arial-Unicode, Arial, Sans-serif">from the Noun Project</text></svg>