<svg xmlns="http://www.w3.org/2000/svg" data-name="Layer 1" viewBox="0 0 48 60" x="0px" y="0px"><title>_users</title><path d="M4.5,44a.5.5,0,0,1-.5-.5v-5A10.39,10.39,0,0,1,14.25,28H27.5a.5.5,0,0,1,0,1H14.25A9.39,9.39,0,0,0,5,38.5v5A.5.5,0,0,1,4.5,44Z"/><path d="M24,5a9,9,0,1,1-9,9,9,9,0,0,1,9-9m0-1A10,10,0,1,0,34,14,10,10,0,0,0,24,4Z"/><path d="M29.19,44a1.25,1.25,0,0,1-.5-.11A1.18,1.18,0,0,1,28,42.81V32.54a2.39,2.39,0,0,1,2.39-2.39H41.61A2.39,2.39,0,0,1,44,32.54V40a2.39,2.39,0,0,1-2.39,2.39H32a1.32,1.32,0,0,0-.84.31l-1.21,1A1.14,1.14,0,0,1,29.19,44Zm1.2-12.79a1.33,1.33,0,0,0-1.32,1.33V42.81a.11.11,0,0,0,.07.11.11.11,0,0,0,.13,0l1.21-1A2.37,2.37,0,0,1,32,41.35h9.61A1.33,1.33,0,0,0,42.93,40V32.54a1.33,1.33,0,0,0-1.32-1.33Z"/><text x="0" y="63" fill="#000000" font-size="5px" font-weight="bold" font-family="'Helvetica Neue', Helvetica, Arial-Unicode, Arial, Sans-serif">Created by Abhishek Pipalva</text><text x="0" y="68" fill="#000000" font-size="5px" font-weight="bold" font-family="'Helvetica Neue', Helvetica, Arial-Unicode, Arial, Sans-serif">from the Noun Project</text></svg>